<?xml version="1.0" encoding="iso-8859-1"?>
<!-- Generator: Adobe Illustrator 21.1.0, SVG Export Plug-In . SVG Version: 6.00 Build 0)  -->
<svg version="1.1" id="Layer_1" xmlns="http://www.w3.org/2000/svg" xmlns:xlink="http://www.w3.org/1999/xlink" x="0px" y="0px"
	 viewBox="0 0 24 24" enable-background="new 0 0 24 24" xml:space="preserve">
<g>
	<path fill="#303C42" d="M16.500021,12c0-3.5209961,1.590332-7.2231445,4.3632813-10.1567383
		c0.1088867-0.1147461,0.1567383-0.2749023,0.1289063-0.4306641c-0.027832-0.15625-0.1279297-0.2895508-0.2695313-0.3603516
		C18.9736538,0.1826172,16.6455288,0,15.000021,0c-6.6166992,0-12,5.3833008-12,12s5.3833008,12,12,12
		c1.6455078,0,3.9736328-0.1826172,5.7226563-1.0522461c0.1416016-0.0708008,0.2416992-0.2041016,0.2695313-0.3603516
		c0.027832-0.1557617-0.0200195-0.315918-0.1289063-0.4306641C18.090353,19.2231445,16.500021,15.5209961,16.500021,12z"/>
	<path fill="#FFF1D3" d="M15.000021,23c-6.0654297,0-11-4.9345703-11-11s4.9345698-11,11-11
		c1.3452148,0,3.1694336,0.1259766,4.6591797,0.6811523C17.0083218,4.7104492,15.500021,8.4345703,15.500021,12
		s1.5083008,7.2895508,4.1591797,10.3188477C18.1694546,22.8740234,16.3452358,23,15.000021,23z"/>
	<path opacity="0.05" fill="#010101" d="M19.633564,1.6716558c-1.5581417-0.5737684-3.321558,0.0973493-4.2196903,1.4939078
		C14.1489239,5.1325073,13.3408413,7.1793532,13.3408413,9c0,2.3769531,0.6703491,4.8244019,1.90271,7.0895386
		C16.1941738,17.836853,15.5575762,21.0424595,12,20.416666c-0.0616179-0.0108376-4.877542-1.6258945-6.8638091-3.5785923
		C6.9306855,20.4812012,10.671957,23,15.000021,23c1.3452148,0,3.1694336-0.1259766,4.6591797-0.6811523
		C17.0083218,19.2895508,15.500021,15.5654297,15.500021,12s1.5083008-7.2895508,4.1591797-10.3188477
		C19.6506653,1.6779718,19.6421204,1.6748062,19.633564,1.6716558z"/>
	<ellipse fill="#303C42" cx="8.000021" cy="10.5" rx="2" ry="2.5"/>
	<path fill="#FFF1D3" d="M8.000021,12c-0.5419917,0-0.9999995-0.6870117-0.9999995-1.5S7.4580293,9,8.000021,9s1,0.6870117,1,1.5
		S8.5420132,12,8.000021,12z"/>
	<path fill="#303C42" d="M8.0737514,14c-0.3173823,0-0.5996089,0.1420898-0.7949214,0.3999023
		c-0.3037109,0.4023438-0.3632813,1.0351563-0.1640625,1.7368164C7.3711152,17.0400391,8.0932827,18,8.9262905,18
		c0.3173828,0,0.5996094-0.1420898,0.7949219-0.3999023c0.3037109-0.4023438,0.3632813-1.0351563,0.1640625-1.7368164
		C9.6289272,14.9599609,8.9067593,14,8.0737514,14z"/>
	<path fill="#FFF1D3" d="M8.9262905,17c-0.1855469,0-0.6494141-0.4316406-0.8496094-1.1367188
		C7.9267793,15.3359375,8.0317593,15.0375977,8.0737514,15c0.1855469,0,0.6494141,0.4316406,0.8496094,1.1367188
		C9.0732632,16.6640625,8.9682827,16.9624023,8.9262905,17z"/>
	<path opacity="0.1" fill="#010101" d="M7.5000215,11.5c0-0.8129883,0.4580078-1.5,0.9999995-1.5
		c0.1727295,0,0.3346558,0.0757446,0.4782104,0.1971436C8.8817959,9.5234985,8.4730434,9,8.000021,9
		c-0.5419917,0-0.9999995,0.6870117-0.9999995,1.5c0,0.553833,0.2149048,1.043335,0.5217896,1.3028564
		C7.5077729,11.7046509,7.5000215,11.6034546,7.5000215,11.5z"/>
	<path opacity="0.1" fill="#010101" d="M8.000021,12c-0.5419917,0-0.9999995-0.6870117-0.9999995-1.5S7.4580293,9,8.000021,9
		s1,0.6870117,1,1.5S8.5420132,12,8.000021,12z"/>
	<path opacity="0.1" fill="#010101" d="M8.9262905,17c-0.1855469,0-0.6494141-0.4316406-0.8496094-1.1367188
		C7.9267793,15.3359375,8.0317593,15.0375977,8.0737514,15c0.1855469,0,0.6494141,0.4316406,0.8496094,1.1367188
		C9.0732632,16.6640625,8.9682827,16.9624023,8.9262905,17z"/>
	<linearGradient id="SVGID_1_" gradientUnits="userSpaceOnUse" x1="4.1974835" y1="6.7732959" x2="24.0649853" y2="16.0376644">
		<stop  offset="0" style="stop-color:#FFFFFF;stop-opacity:0.2"/>
		<stop  offset="1" style="stop-color:#FFFFFF;stop-opacity:0"/>
	</linearGradient>
	<path fill="url(#SVGID_1_)" d="M16.500021,12c0-3.5209961,1.590332-7.2231445,4.3632813-10.1567383
		c0.1088867-0.1147461,0.1567383-0.2749023,0.1289063-0.4306641c-0.027832-0.15625-0.1279297-0.2895508-0.2695313-0.3603516
		C18.9736538,0.1826172,16.6455288,0,15.000021,0c-6.6166992,0-12,5.3833008-12,12s5.3833008,12,12,12
		c1.6455078,0,3.9736328-0.1826172,5.7226563-1.0522461c0.1416016-0.0708008,0.2416992-0.2041016,0.2695313-0.3603516
		c0.027832-0.1557617-0.0200195-0.315918-0.1289063-0.4306641C18.090353,19.2231445,16.500021,15.5209961,16.500021,12z"/>
</g>
<g>
</g>
<g>
</g>
<g>
</g>
<g>
</g>
<g>
</g>
<g>
</g>
<g>
</g>
<g>
</g>
<g>
</g>
<g>
</g>
<g>
</g>
<g>
</g>
<g>
</g>
<g>
</g>
<g>
</g>
</svg>
